<mxfile host="app.diagrams.net" agent="Mozilla/5.0 (Windows NT 10.0; Win64; x64) AppleWebKit/537.36 (KHTML, like Gecko) Chrome/129.0.0.0 Safari/537.36" version="24.7.16" pages="2">
  <diagram name="Page-1" id="pteTAIGlAc0p7t94jHmJ">
    <mxGraphModel dx="1932" dy="549" grid="1" gridSize="10" guides="1" tooltips="1" connect="1" arrows="1" fold="1" page="1" pageScale="1" pageWidth="827" pageHeight="1169" math="0" shadow="0">
      <root>
        <mxCell id="0" />
        <mxCell id="1" parent="0" />
        <mxCell id="_Lz6I93l5ru_T4zFbFvI-14" value="color map" style="shape=table;startSize=30;container=1;collapsible=0;childLayout=tableLayout;strokeColor=default;fontSize=16;" parent="1" vertex="1">
          <mxGeometry x="10" y="10" width="272" height="150" as="geometry" />
        </mxCell>
        <mxCell id="_Lz6I93l5ru_T4zFbFvI-15" value="" style="shape=tableRow;horizontal=0;startSize=0;swimlaneHead=0;swimlaneBody=0;strokeColor=inherit;top=0;left=0;bottom=0;right=0;collapsible=0;dropTarget=0;fillColor=none;points=[[0,0.5],[1,0.5]];portConstraint=eastwest;fontSize=16;" parent="_Lz6I93l5ru_T4zFbFvI-14" vertex="1">
          <mxGeometry y="30" width="272" height="40" as="geometry" />
        </mxCell>
        <mxCell id="_Lz6I93l5ru_T4zFbFvI-16" value="API call" style="shape=partialRectangle;html=1;whiteSpace=wrap;connectable=0;strokeColor=inherit;overflow=hidden;fillColor=none;top=0;left=0;bottom=0;right=0;pointerEvents=1;fontSize=16;" parent="_Lz6I93l5ru_T4zFbFvI-15" vertex="1">
          <mxGeometry width="140" height="40" as="geometry">
            <mxRectangle width="140" height="40" as="alternateBounds" />
          </mxGeometry>
        </mxCell>
        <mxCell id="_Lz6I93l5ru_T4zFbFvI-17" value="" style="shape=partialRectangle;html=1;whiteSpace=wrap;connectable=0;overflow=hidden;top=0;left=0;bottom=0;right=0;pointerEvents=1;fontSize=16;" parent="_Lz6I93l5ru_T4zFbFvI-15" vertex="1">
          <mxGeometry x="140" width="132" height="40" as="geometry">
            <mxRectangle width="132" height="40" as="alternateBounds" />
          </mxGeometry>
        </mxCell>
        <mxCell id="_Lz6I93l5ru_T4zFbFvI-19" value="" style="shape=tableRow;horizontal=0;startSize=0;swimlaneHead=0;swimlaneBody=0;strokeColor=inherit;top=0;left=0;bottom=0;right=0;collapsible=0;dropTarget=0;fillColor=none;points=[[0,0.5],[1,0.5]];portConstraint=eastwest;fontSize=16;" parent="_Lz6I93l5ru_T4zFbFvI-14" vertex="1">
          <mxGeometry y="70" width="272" height="40" as="geometry" />
        </mxCell>
        <mxCell id="_Lz6I93l5ru_T4zFbFvI-20" value="server side process" style="shape=partialRectangle;html=1;whiteSpace=wrap;connectable=0;strokeColor=inherit;overflow=hidden;fillColor=none;top=0;left=0;bottom=0;right=0;pointerEvents=1;fontSize=16;" parent="_Lz6I93l5ru_T4zFbFvI-19" vertex="1">
          <mxGeometry width="140" height="40" as="geometry">
            <mxRectangle width="140" height="40" as="alternateBounds" />
          </mxGeometry>
        </mxCell>
        <mxCell id="_Lz6I93l5ru_T4zFbFvI-21" value="" style="shape=partialRectangle;html=1;whiteSpace=wrap;connectable=0;strokeColor=#3700CC;overflow=hidden;fillColor=#6a00ff;top=0;left=0;bottom=0;right=0;pointerEvents=1;fontSize=16;fontColor=#ffffff;" parent="_Lz6I93l5ru_T4zFbFvI-19" vertex="1">
          <mxGeometry x="140" width="132" height="40" as="geometry">
            <mxRectangle width="132" height="40" as="alternateBounds" />
          </mxGeometry>
        </mxCell>
        <mxCell id="_Lz6I93l5ru_T4zFbFvI-23" value="" style="shape=tableRow;horizontal=0;startSize=0;swimlaneHead=0;swimlaneBody=0;strokeColor=inherit;top=0;left=0;bottom=0;right=0;collapsible=0;dropTarget=0;fillColor=none;points=[[0,0.5],[1,0.5]];portConstraint=eastwest;fontSize=16;" parent="_Lz6I93l5ru_T4zFbFvI-14" vertex="1">
          <mxGeometry y="110" width="272" height="40" as="geometry" />
        </mxCell>
        <mxCell id="_Lz6I93l5ru_T4zFbFvI-24" value="server Action" style="shape=partialRectangle;html=1;whiteSpace=wrap;connectable=0;strokeColor=inherit;overflow=hidden;fillColor=none;top=0;left=0;bottom=0;right=0;pointerEvents=1;fontSize=16;" parent="_Lz6I93l5ru_T4zFbFvI-23" vertex="1">
          <mxGeometry width="140" height="40" as="geometry">
            <mxRectangle width="140" height="40" as="alternateBounds" />
          </mxGeometry>
        </mxCell>
        <mxCell id="_Lz6I93l5ru_T4zFbFvI-25" value="" style="shape=partialRectangle;html=1;whiteSpace=wrap;connectable=0;strokeColor=#001DBC;overflow=hidden;fillColor=#0050ef;top=0;left=0;bottom=0;right=0;pointerEvents=1;fontSize=16;fontColor=#ffffff;" parent="_Lz6I93l5ru_T4zFbFvI-23" vertex="1">
          <mxGeometry x="140" width="132" height="40" as="geometry">
            <mxRectangle width="132" height="40" as="alternateBounds" />
          </mxGeometry>
        </mxCell>
        <mxCell id="_Lz6I93l5ru_T4zFbFvI-88" style="edgeStyle=orthogonalEdgeStyle;rounded=0;orthogonalLoop=1;jettySize=auto;html=1;entryX=0.5;entryY=0;entryDx=0;entryDy=0;exitX=0.5;exitY=1;exitDx=0;exitDy=0;" parent="1" source="WjPGS6aV06rKY_8aKDoy-7" target="WjPGS6aV06rKY_8aKDoy-10" edge="1">
          <mxGeometry relative="1" as="geometry">
            <mxPoint x="765" y="309.1700000000001" as="sourcePoint" />
            <mxPoint x="765" y="350" as="targetPoint" />
          </mxGeometry>
        </mxCell>
        <mxCell id="9fSp8sO44n7Tz8PfT3hy-3" value="Email Linking" style="swimlane;startSize=0;align=left;fillColor=none;fontColor=#333333;strokeColor=#FFFFFF;gradientColor=none;swimlaneFillColor=#AD4D1D;opacity=50;strokeWidth=1;perimeterSpacing=1;" parent="1" vertex="1">
          <mxGeometry x="11" y="242" width="470" height="1717" as="geometry" />
        </mxCell>
        <mxCell id="_Lz6I93l5ru_T4zFbFvI-2" value="Signup (email, password)" style="rounded=1;whiteSpace=wrap;html=1;fontStyle=1" parent="9fSp8sO44n7Tz8PfT3hy-3" vertex="1">
          <mxGeometry x="56.5" y="9.169999999999987" width="161.67" height="49.17" as="geometry" />
        </mxCell>
        <mxCell id="_Lz6I93l5ru_T4zFbFvI-44" style="edgeStyle=orthogonalEdgeStyle;rounded=0;orthogonalLoop=1;jettySize=auto;html=1;entryX=0.25;entryY=0;entryDx=0;entryDy=0;" parent="9fSp8sO44n7Tz8PfT3hy-3" source="_Lz6I93l5ru_T4zFbFvI-2" target="0f2ua5pnuV8czUVJPmkx-8" edge="1">
          <mxGeometry relative="1" as="geometry">
            <mxPoint x="186.00000000000023" y="98" as="targetPoint" />
          </mxGeometry>
        </mxCell>
        <mxCell id="WjPGS6aV06rKY_8aKDoy-6" style="edgeStyle=orthogonalEdgeStyle;rounded=0;orthogonalLoop=1;jettySize=auto;html=1;entryX=0.5;entryY=0;entryDx=0;entryDy=0;" parent="9fSp8sO44n7Tz8PfT3hy-3" source="_Lz6I93l5ru_T4zFbFvI-51" target="WjPGS6aV06rKY_8aKDoy-4" edge="1">
          <mxGeometry relative="1" as="geometry" />
        </mxCell>
        <mxCell id="_Lz6I93l5ru_T4zFbFvI-51" value="create account (...account_data, secret)" style="rounded=1;whiteSpace=wrap;html=1;" parent="9fSp8sO44n7Tz8PfT3hy-3" vertex="1">
          <mxGeometry x="161.17000000000002" y="1291" width="144" height="60" as="geometry" />
        </mxCell>
        <mxCell id="2UZ3ieq_R4y29duBAabU-9" style="edgeStyle=orthogonalEdgeStyle;rounded=0;orthogonalLoop=1;jettySize=auto;html=1;entryX=0.25;entryY=0;entryDx=0;entryDy=0;exitX=0;exitY=0.5;exitDx=0;exitDy=0;" edge="1" parent="9fSp8sO44n7Tz8PfT3hy-3" source="0f2ua5pnuV8czUVJPmkx-8" target="9fSp8sO44n7Tz8PfT3hy-3">
          <mxGeometry relative="1" as="geometry">
            <Array as="points">
              <mxPoint x="-21" y="528" />
              <mxPoint x="-21" y="-20" />
              <mxPoint x="117" y="-20" />
            </Array>
          </mxGeometry>
        </mxCell>
        <mxCell id="0f2ua5pnuV8czUVJPmkx-8" value="server side process" style="swimlane;startSize=0;swimlaneFillColor=#4C0099;fontStyle=0;align=left;fontSize=9;" parent="9fSp8sO44n7Tz8PfT3hy-3" vertex="1">
          <mxGeometry x="40" y="298" width="390" height="460" as="geometry">
            <mxRectangle x="40" y="96" width="120" height="20" as="alternateBounds" />
          </mxGeometry>
        </mxCell>
        <mxCell id="9fSp8sO44n7Tz8PfT3hy-7" value="is &lt;br&gt;email&lt;br&gt;valid" style="rhombus;whiteSpace=wrap;html=1;fillColor=#f5f5f5;fontColor=#333333;strokeColor=#666666;" parent="0f2ua5pnuV8czUVJPmkx-8" vertex="1">
          <mxGeometry x="147.02" y="2.0000000000000338" width="80" height="71.29" as="geometry" />
        </mxCell>
        <mxCell id="_Lz6I93l5ru_T4zFbFvI-34" value="response with error" style="rounded=1;whiteSpace=wrap;html=1;fillColor=#0050ef;fontColor=#ffffff;strokeColor=#001DBC;" parent="0f2ua5pnuV8czUVJPmkx-8" vertex="1">
          <mxGeometry x="246.02" y="71.29000000000002" width="104.07" height="53.12" as="geometry" />
        </mxCell>
        <mxCell id="_Lz6I93l5ru_T4zFbFvI-32" value="email&lt;div&gt;&amp;amp;&lt;/div&gt;&lt;div&gt;email.is_verified&lt;/div&gt;" style="rhombus;whiteSpace=wrap;html=1;fillColor=#f5f5f5;fontColor=#333333;strokeColor=#666666;" parent="0f2ua5pnuV8czUVJPmkx-8" vertex="1">
          <mxGeometry x="118" y="112" width="139" height="98" as="geometry" />
        </mxCell>
        <mxCell id="_Lz6I93l5ru_T4zFbFvI-13" value="let vm= an unverified nonloginable &#39;e&#39; type verification method&amp;nbsp;" style="rounded=1;whiteSpace=wrap;html=1;fillColor=#0050ef;fontColor=#ffffff;strokeColor=#001DBC;" parent="0f2ua5pnuV8czUVJPmkx-8" vertex="1">
          <mxGeometry x="16" y="194" width="122.04" height="53" as="geometry" />
        </mxCell>
        <mxCell id="WjPGS6aV06rKY_8aKDoy-30" style="edgeStyle=orthogonalEdgeStyle;rounded=0;orthogonalLoop=1;jettySize=auto;html=1;entryX=0;entryY=0.5;entryDx=0;entryDy=0;exitX=0.5;exitY=1;exitDx=0;exitDy=0;" parent="0f2ua5pnuV8czUVJPmkx-8" source="0f2ua5pnuV8czUVJPmkx-3" target="WjPGS6aV06rKY_8aKDoy-28" edge="1">
          <mxGeometry relative="1" as="geometry" />
        </mxCell>
        <mxCell id="0f2ua5pnuV8czUVJPmkx-3" value="set hashed_password&lt;div&gt;to hash(password)&lt;/div&gt;" style="rounded=1;whiteSpace=wrap;html=1;fillColor=#0050ef;fontColor=#ffffff;strokeColor=#001DBC;" parent="0f2ua5pnuV8czUVJPmkx-8" vertex="1">
          <mxGeometry x="17" y="321" width="126" height="49.17" as="geometry" />
        </mxCell>
        <mxCell id="9fSp8sO44n7Tz8PfT3hy-9" value="no" style="edgeStyle=orthogonalEdgeStyle;rounded=0;orthogonalLoop=1;jettySize=auto;html=1;entryX=0.5;entryY=0;entryDx=0;entryDy=0;exitX=1;exitY=0.5;exitDx=0;exitDy=0;" parent="0f2ua5pnuV8czUVJPmkx-8" source="9fSp8sO44n7Tz8PfT3hy-7" target="_Lz6I93l5ru_T4zFbFvI-34" edge="1">
          <mxGeometry relative="1" as="geometry" />
        </mxCell>
        <mxCell id="9fSp8sO44n7Tz8PfT3hy-8" value="yes" style="edgeStyle=orthogonalEdgeStyle;rounded=0;orthogonalLoop=1;jettySize=auto;html=1;" parent="0f2ua5pnuV8czUVJPmkx-8" source="9fSp8sO44n7Tz8PfT3hy-7" target="_Lz6I93l5ru_T4zFbFvI-32" edge="1">
          <mxGeometry relative="1" as="geometry" />
        </mxCell>
        <mxCell id="_Lz6I93l5ru_T4zFbFvI-35" value="yes" style="edgeStyle=orthogonalEdgeStyle;rounded=0;orthogonalLoop=1;jettySize=auto;html=1;entryX=0.5;entryY=1;entryDx=0;entryDy=0;exitX=1;exitY=0.5;exitDx=0;exitDy=0;" parent="0f2ua5pnuV8czUVJPmkx-8" source="_Lz6I93l5ru_T4zFbFvI-32" target="_Lz6I93l5ru_T4zFbFvI-34" edge="1">
          <mxGeometry relative="1" as="geometry" />
        </mxCell>
        <mxCell id="9fSp8sO44n7Tz8PfT3hy-10" value="no" style="edgeStyle=orthogonalEdgeStyle;rounded=0;orthogonalLoop=1;jettySize=auto;html=1;entryX=0.5;entryY=0;entryDx=0;entryDy=0;exitX=0;exitY=0.5;exitDx=0;exitDy=0;" parent="0f2ua5pnuV8czUVJPmkx-8" source="_Lz6I93l5ru_T4zFbFvI-32" target="_Lz6I93l5ru_T4zFbFvI-13" edge="1">
          <mxGeometry relative="1" as="geometry" />
        </mxCell>
        <mxCell id="0f2ua5pnuV8czUVJPmkx-4" style="edgeStyle=orthogonalEdgeStyle;rounded=0;orthogonalLoop=1;jettySize=auto;html=1;entryX=0.5;entryY=0;entryDx=0;entryDy=0;" parent="0f2ua5pnuV8czUVJPmkx-8" source="_Lz6I93l5ru_T4zFbFvI-13" target="WjPGS6aV06rKY_8aKDoy-20" edge="1">
          <mxGeometry relative="1" as="geometry" />
        </mxCell>
        <mxCell id="WjPGS6aV06rKY_8aKDoy-23" value="no" style="edgeStyle=orthogonalEdgeStyle;rounded=0;orthogonalLoop=1;jettySize=auto;html=1;entryX=0.5;entryY=0;entryDx=0;entryDy=0;exitX=0;exitY=0.5;exitDx=0;exitDy=0;" parent="0f2ua5pnuV8czUVJPmkx-8" source="WjPGS6aV06rKY_8aKDoy-20" target="0f2ua5pnuV8czUVJPmkx-3" edge="1">
          <mxGeometry relative="1" as="geometry" />
        </mxCell>
        <mxCell id="WjPGS6aV06rKY_8aKDoy-25" value="yes" style="edgeStyle=orthogonalEdgeStyle;rounded=0;orthogonalLoop=1;jettySize=auto;html=1;exitX=1;exitY=0.5;exitDx=0;exitDy=0;entryX=0.5;entryY=0;entryDx=0;entryDy=0;" parent="0f2ua5pnuV8czUVJPmkx-8" source="WjPGS6aV06rKY_8aKDoy-20" target="WjPGS6aV06rKY_8aKDoy-24" edge="1">
          <mxGeometry relative="1" as="geometry" />
        </mxCell>
        <mxCell id="WjPGS6aV06rKY_8aKDoy-20" value="call&lt;br&gt;aouthorized" style="rhombus;whiteSpace=wrap;html=1;fillColor=#f5f5f5;fontColor=#333333;strokeColor=#666666;" parent="0f2ua5pnuV8czUVJPmkx-8" vertex="1">
          <mxGeometry x="161.04000000000002" y="242" width="94" height="89" as="geometry" />
        </mxCell>
        <mxCell id="WjPGS6aV06rKY_8aKDoy-29" style="edgeStyle=orthogonalEdgeStyle;rounded=0;orthogonalLoop=1;jettySize=auto;html=1;entryX=1;entryY=0.5;entryDx=0;entryDy=0;exitX=0.5;exitY=1;exitDx=0;exitDy=0;" parent="0f2ua5pnuV8czUVJPmkx-8" source="WjPGS6aV06rKY_8aKDoy-24" target="WjPGS6aV06rKY_8aKDoy-28" edge="1">
          <mxGeometry relative="1" as="geometry" />
        </mxCell>
        <mxCell id="WjPGS6aV06rKY_8aKDoy-24" value="set account_id to id" style="rounded=1;whiteSpace=wrap;html=1;fillColor=#0050ef;fontColor=#ffffff;strokeColor=#001DBC;" parent="0f2ua5pnuV8czUVJPmkx-8" vertex="1">
          <mxGeometry x="270.00000000000006" y="319" width="104.07" height="53.12" as="geometry" />
        </mxCell>
        <mxCell id="WjPGS6aV06rKY_8aKDoy-28" value="Upsert vm in DB &amp;amp;&lt;div&gt;Send a verification email to the user (secrit)&lt;/div&gt;" style="rounded=1;whiteSpace=wrap;html=1;fillColor=#0050ef;fontColor=#ffffff;strokeColor=#001DBC;" parent="0f2ua5pnuV8czUVJPmkx-8" vertex="1">
          <mxGeometry x="133.04" y="387" width="131.96" height="49.17" as="geometry" />
        </mxCell>
        <mxCell id="WjPGS6aV06rKY_8aKDoy-4" value="server side process" style="swimlane;startSize=0;swimlaneFillColor=#4C0099;fontStyle=0;align=left;fontSize=9;" parent="9fSp8sO44n7Tz8PfT3hy-3" vertex="1">
          <mxGeometry x="93.5" y="1386" width="280" height="317" as="geometry" />
        </mxCell>
        <mxCell id="_Lz6I93l5ru_T4zFbFvI-59" value="responce with error" style="rounded=1;whiteSpace=wrap;html=1;fillColor=#0050ef;fontColor=#ffffff;strokeColor=#001DBC;" parent="WjPGS6aV06rKY_8aKDoy-4" vertex="1">
          <mxGeometry x="170.93" y="92.53000000000003" width="104.07" height="53.12" as="geometry" />
        </mxCell>
        <mxCell id="_Lz6I93l5ru_T4zFbFvI-58" value="is &lt;br&gt;acc_data&lt;br&gt;valid" style="rhombus;whiteSpace=wrap;html=1;fillColor=#f5f5f5;fontColor=#333333;strokeColor=#666666;" parent="WjPGS6aV06rKY_8aKDoy-4" vertex="1">
          <mxGeometry x="102.93" y="139.89000000000004" width="80" height="71.29" as="geometry" />
        </mxCell>
        <mxCell id="_Lz6I93l5ru_T4zFbFvI-64" value="responce with error" style="rounded=1;whiteSpace=wrap;html=1;fillColor=#0050ef;fontColor=#ffffff;strokeColor=#001DBC;" parent="WjPGS6aV06rKY_8aKDoy-4" vertex="1">
          <mxGeometry x="5.930000000000007" y="78.77000000000004" width="104.07" height="53.12" as="geometry" />
        </mxCell>
        <mxCell id="_Lz6I93l5ru_T4zFbFvI-61" value="secret valid&lt;br&gt;&amp;amp;is_verified&lt;div&gt;&amp;amp;!account_id&lt;/div&gt;" style="rhombus;whiteSpace=wrap;html=1;fillColor=#f5f5f5;fontColor=#333333;strokeColor=#666666;" parent="WjPGS6aV06rKY_8aKDoy-4" vertex="1">
          <mxGeometry x="85.93" y="6.18" width="114.07" height="93.82" as="geometry" />
        </mxCell>
        <mxCell id="_Lz6I93l5ru_T4zFbFvI-56" value="save the account &amp;amp; update account_id &amp;amp; set loginable to true" style="rounded=1;whiteSpace=wrap;html=1;fillColor=#0050ef;fontColor=#ffffff;strokeColor=#001DBC;" parent="WjPGS6aV06rKY_8aKDoy-4" vertex="1">
          <mxGeometry x="5.93" y="199.65" width="101.53" height="60.35" as="geometry" />
        </mxCell>
        <mxCell id="_Lz6I93l5ru_T4zFbFvI-73" value="responce with tokens" style="rounded=1;whiteSpace=wrap;html=1;fillColor=#0050ef;fontColor=#ffffff;strokeColor=#001DBC;" parent="WjPGS6aV06rKY_8aKDoy-4" vertex="1">
          <mxGeometry x="131.26" y="255.8200000000001" width="120" height="50" as="geometry" />
        </mxCell>
        <mxCell id="_Lz6I93l5ru_T4zFbFvI-60" value="no" style="edgeStyle=orthogonalEdgeStyle;rounded=0;orthogonalLoop=1;jettySize=auto;html=1;entryX=0.5;entryY=1;entryDx=0;entryDy=0;exitX=1;exitY=0.5;exitDx=0;exitDy=0;" parent="WjPGS6aV06rKY_8aKDoy-4" source="_Lz6I93l5ru_T4zFbFvI-58" target="_Lz6I93l5ru_T4zFbFvI-59" edge="1">
          <mxGeometry relative="1" as="geometry" />
        </mxCell>
        <mxCell id="_Lz6I93l5ru_T4zFbFvI-63" value="yes" style="edgeStyle=orthogonalEdgeStyle;rounded=0;orthogonalLoop=1;jettySize=auto;html=1;entryX=0.5;entryY=0;entryDx=0;entryDy=0;" parent="WjPGS6aV06rKY_8aKDoy-4" source="_Lz6I93l5ru_T4zFbFvI-61" target="_Lz6I93l5ru_T4zFbFvI-58" edge="1">
          <mxGeometry relative="1" as="geometry" />
        </mxCell>
        <mxCell id="_Lz6I93l5ru_T4zFbFvI-65" value="no" style="edgeStyle=orthogonalEdgeStyle;rounded=0;orthogonalLoop=1;jettySize=auto;html=1;entryX=0.5;entryY=0;entryDx=0;entryDy=0;exitX=0;exitY=0.5;exitDx=0;exitDy=0;" parent="WjPGS6aV06rKY_8aKDoy-4" source="_Lz6I93l5ru_T4zFbFvI-61" target="_Lz6I93l5ru_T4zFbFvI-64" edge="1">
          <mxGeometry relative="1" as="geometry" />
        </mxCell>
        <mxCell id="_Lz6I93l5ru_T4zFbFvI-57" value="yes" style="edgeStyle=orthogonalEdgeStyle;rounded=0;orthogonalLoop=1;jettySize=auto;html=1;entryX=0.5;entryY=0;entryDx=0;entryDy=0;exitX=0;exitY=0.5;exitDx=0;exitDy=0;fillColor=none;" parent="WjPGS6aV06rKY_8aKDoy-4" source="_Lz6I93l5ru_T4zFbFvI-58" target="_Lz6I93l5ru_T4zFbFvI-56" edge="1">
          <mxGeometry relative="1" as="geometry" />
        </mxCell>
        <mxCell id="_Lz6I93l5ru_T4zFbFvI-74" style="edgeStyle=orthogonalEdgeStyle;rounded=0;orthogonalLoop=1;jettySize=auto;html=1;entryX=0;entryY=0.5;entryDx=0;entryDy=0;exitX=0.5;exitY=1;exitDx=0;exitDy=0;" parent="WjPGS6aV06rKY_8aKDoy-4" source="_Lz6I93l5ru_T4zFbFvI-56" target="_Lz6I93l5ru_T4zFbFvI-73" edge="1">
          <mxGeometry relative="1" as="geometry" />
        </mxCell>
        <mxCell id="_Lz6I93l5ru_T4zFbFvI-3" value="Verify email (secret)" style="rounded=1;whiteSpace=wrap;html=1;fontStyle=1" parent="9fSp8sO44n7Tz8PfT3hy-3" vertex="1">
          <mxGeometry x="134.32999999999998" y="799" width="200" height="50" as="geometry" />
        </mxCell>
        <mxCell id="2UZ3ieq_R4y29duBAabU-8" style="edgeStyle=orthogonalEdgeStyle;rounded=0;orthogonalLoop=1;jettySize=auto;html=1;entryX=0.75;entryY=0;entryDx=0;entryDy=0;exitX=1;exitY=0.5;exitDx=0;exitDy=0;" edge="1" parent="9fSp8sO44n7Tz8PfT3hy-3" source="ZFrwRgd-oDH84CEfDE7K-3" target="9fSp8sO44n7Tz8PfT3hy-3">
          <mxGeometry relative="1" as="geometry">
            <Array as="points">
              <mxPoint x="509" y="1068" />
              <mxPoint x="509" y="-20" />
              <mxPoint x="353" y="-20" />
            </Array>
          </mxGeometry>
        </mxCell>
        <mxCell id="ZFrwRgd-oDH84CEfDE7K-3" value="server side process" style="swimlane;startSize=0;swimlaneFillColor=#4C0099;fontStyle=0;align=left;fontSize=9;" parent="9fSp8sO44n7Tz8PfT3hy-3" vertex="1">
          <mxGeometry x="47" y="883" width="375" height="369" as="geometry" />
        </mxCell>
        <mxCell id="ZFrwRgd-oDH84CEfDE7K-4" value="is&lt;br&gt;secret&lt;br&gt;valid" style="rhombus;whiteSpace=wrap;html=1;fillColor=#f5f5f5;fontColor=#333333;strokeColor=#666666;" parent="ZFrwRgd-oDH84CEfDE7K-3" vertex="1">
          <mxGeometry x="77.00000000000023" y="10" width="80" height="71.29" as="geometry" />
        </mxCell>
        <mxCell id="ZFrwRgd-oDH84CEfDE7K-5" value="no" style="edgeStyle=orthogonalEdgeStyle;rounded=0;orthogonalLoop=1;jettySize=auto;html=1;entryX=0.5;entryY=0;entryDx=0;entryDy=0;exitX=1;exitY=0.5;exitDx=0;exitDy=0;" parent="ZFrwRgd-oDH84CEfDE7K-3" source="ZFrwRgd-oDH84CEfDE7K-4" target="ZFrwRgd-oDH84CEfDE7K-7" edge="1">
          <mxGeometry relative="1" as="geometry">
            <mxPoint x="182.0400000000002" y="88.70000000000005" as="targetPoint" />
          </mxGeometry>
        </mxCell>
        <mxCell id="ZFrwRgd-oDH84CEfDE7K-6" value="yes" style="edgeStyle=orthogonalEdgeStyle;rounded=0;orthogonalLoop=1;jettySize=auto;html=1;entryX=0.5;entryY=0;entryDx=0;entryDy=0;" parent="ZFrwRgd-oDH84CEfDE7K-3" source="ZFrwRgd-oDH84CEfDE7K-4" target="ZFrwRgd-oDH84CEfDE7K-8" edge="1">
          <mxGeometry relative="1" as="geometry">
            <mxPoint x="90.04000000000022" y="127.70000000000005" as="targetPoint" />
          </mxGeometry>
        </mxCell>
        <mxCell id="ZFrwRgd-oDH84CEfDE7K-7" value="response with HTML error page&amp;nbsp;" style="rounded=1;whiteSpace=wrap;html=1;fillColor=#0050ef;fontColor=#ffffff;strokeColor=#001DBC;" parent="ZFrwRgd-oDH84CEfDE7K-3" vertex="1">
          <mxGeometry x="154.00000000000006" y="70" width="104.07" height="53.12" as="geometry" />
        </mxCell>
        <mxCell id="WjPGS6aV06rKY_8aKDoy-2" style="edgeStyle=orthogonalEdgeStyle;rounded=0;orthogonalLoop=1;jettySize=auto;html=1;entryX=0.5;entryY=0;entryDx=0;entryDy=0;exitX=1;exitY=0.5;exitDx=0;exitDy=0;" parent="ZFrwRgd-oDH84CEfDE7K-3" source="ZFrwRgd-oDH84CEfDE7K-8" target="WjPGS6aV06rKY_8aKDoy-16" edge="1">
          <mxGeometry relative="1" as="geometry" />
        </mxCell>
        <mxCell id="ZFrwRgd-oDH84CEfDE7K-8" value="Set is_verified to true" style="rounded=1;whiteSpace=wrap;html=1;fillColor=#0050ef;fontColor=#ffffff;strokeColor=#001DBC;" parent="ZFrwRgd-oDH84CEfDE7K-3" vertex="1">
          <mxGeometry x="55" y="136.12" width="112" height="43.88" as="geometry" />
        </mxCell>
        <mxCell id="WjPGS6aV06rKY_8aKDoy-1" value="response with HTML success page - routes to account creation page- (secret)" style="rounded=1;whiteSpace=wrap;html=1;fillColor=#0050ef;fontColor=#ffffff;strokeColor=#001DBC;" parent="ZFrwRgd-oDH84CEfDE7K-3" vertex="1">
          <mxGeometry x="8" y="301" width="183.07" height="59" as="geometry" />
        </mxCell>
        <mxCell id="WjPGS6aV06rKY_8aKDoy-16" value="vm.account_id&lt;br&gt;== null" style="rhombus;whiteSpace=wrap;html=1;fillColor=#f5f5f5;fontColor=#333333;strokeColor=#666666;" parent="ZFrwRgd-oDH84CEfDE7K-3" vertex="1">
          <mxGeometry x="132" y="190" width="104.73" height="80" as="geometry" />
        </mxCell>
        <mxCell id="WjPGS6aV06rKY_8aKDoy-17" value="no" style="edgeStyle=orthogonalEdgeStyle;rounded=0;orthogonalLoop=1;jettySize=auto;html=1;exitX=1;exitY=0.5;exitDx=0;exitDy=0;" parent="ZFrwRgd-oDH84CEfDE7K-3" source="WjPGS6aV06rKY_8aKDoy-16" target="WjPGS6aV06rKY_8aKDoy-19" edge="1">
          <mxGeometry relative="1" as="geometry">
            <mxPoint x="197.30999999999997" y="251.69999999999993" as="targetPoint" />
          </mxGeometry>
        </mxCell>
        <mxCell id="WjPGS6aV06rKY_8aKDoy-18" value="yes" style="edgeStyle=orthogonalEdgeStyle;rounded=0;orthogonalLoop=1;jettySize=auto;html=1;entryX=0.25;entryY=0;entryDx=0;entryDy=0;exitX=0;exitY=0.5;exitDx=0;exitDy=0;" parent="ZFrwRgd-oDH84CEfDE7K-3" source="WjPGS6aV06rKY_8aKDoy-16" target="WjPGS6aV06rKY_8aKDoy-1" edge="1">
          <mxGeometry relative="1" as="geometry">
            <mxPoint x="105.30999999999999" y="290.6999999999998" as="targetPoint" />
          </mxGeometry>
        </mxCell>
        <mxCell id="WjPGS6aV06rKY_8aKDoy-19" value="response with simple HTML success page" style="rounded=1;whiteSpace=wrap;html=1;fillColor=#0050ef;fontColor=#ffffff;strokeColor=#001DBC;" parent="ZFrwRgd-oDH84CEfDE7K-3" vertex="1">
          <mxGeometry x="206" y="305.5" width="165" height="50" as="geometry" />
        </mxCell>
        <mxCell id="ZFrwRgd-oDH84CEfDE7K-2" style="edgeStyle=orthogonalEdgeStyle;rounded=0;orthogonalLoop=1;jettySize=auto;html=1;entryX=0.5;entryY=0;entryDx=0;entryDy=0;" parent="9fSp8sO44n7Tz8PfT3hy-3" source="0f2ua5pnuV8czUVJPmkx-8" target="_Lz6I93l5ru_T4zFbFvI-3" edge="1">
          <mxGeometry relative="1" as="geometry" />
        </mxCell>
        <mxCell id="WjPGS6aV06rKY_8aKDoy-3" style="edgeStyle=orthogonalEdgeStyle;rounded=0;orthogonalLoop=1;jettySize=auto;html=1;entryX=0.5;entryY=0;entryDx=0;entryDy=0;exitX=0.5;exitY=1;exitDx=0;exitDy=0;" parent="9fSp8sO44n7Tz8PfT3hy-3" source="WjPGS6aV06rKY_8aKDoy-1" target="_Lz6I93l5ru_T4zFbFvI-51" edge="1">
          <mxGeometry relative="1" as="geometry" />
        </mxCell>
        <mxCell id="_Lz6I93l5ru_T4zFbFvI-50" style="edgeStyle=orthogonalEdgeStyle;rounded=0;orthogonalLoop=1;jettySize=auto;html=1;entryX=0.5;entryY=0;entryDx=0;entryDy=0;" parent="9fSp8sO44n7Tz8PfT3hy-3" source="_Lz6I93l5ru_T4zFbFvI-3" target="ZFrwRgd-oDH84CEfDE7K-3" edge="1">
          <mxGeometry relative="1" as="geometry">
            <mxPoint x="185.99999999999977" y="478" as="targetPoint" />
          </mxGeometry>
        </mxCell>
        <mxCell id="WjPGS6aV06rKY_8aKDoy-27" style="edgeStyle=orthogonalEdgeStyle;rounded=0;orthogonalLoop=1;jettySize=auto;html=1;entryX=0.5;entryY=0;entryDx=0;entryDy=0;" parent="9fSp8sO44n7Tz8PfT3hy-3" source="WjPGS6aV06rKY_8aKDoy-15" target="l8-0bC7ax2X3n8z345mS-5" edge="1">
          <mxGeometry relative="1" as="geometry" />
        </mxCell>
        <mxCell id="WjPGS6aV06rKY_8aKDoy-15" value="Link email (email, token)" style="rounded=1;whiteSpace=wrap;html=1;fontStyle=1;fontSize=15;" parent="9fSp8sO44n7Tz8PfT3hy-3" vertex="1">
          <mxGeometry x="273" y="5.170000000000016" width="120" height="60" as="geometry" />
        </mxCell>
        <mxCell id="l8-0bC7ax2X3n8z345mS-17" style="edgeStyle=orthogonalEdgeStyle;rounded=0;orthogonalLoop=1;jettySize=auto;html=1;entryX=0.75;entryY=0;entryDx=0;entryDy=0;" edge="1" parent="9fSp8sO44n7Tz8PfT3hy-3" source="l8-0bC7ax2X3n8z345mS-5" target="0f2ua5pnuV8czUVJPmkx-8">
          <mxGeometry relative="1" as="geometry" />
        </mxCell>
        <mxCell id="l8-0bC7ax2X3n8z345mS-5" value="server side process" style="swimlane;startSize=0;swimlaneFillColor=#4C0099;fontStyle=0;align=left;fontSize=9;" vertex="1" parent="9fSp8sO44n7Tz8PfT3hy-3">
          <mxGeometry x="223" y="93" width="220" height="173" as="geometry" />
        </mxCell>
        <mxCell id="l8-0bC7ax2X3n8z345mS-6" value="max&lt;div&gt;linkable&lt;/div&gt;&lt;div&gt;emails&lt;/div&gt;&lt;div&gt;exceeded&lt;/div&gt;" style="rhombus;whiteSpace=wrap;html=1;fillColor=#f5f5f5;fontColor=#333333;strokeColor=#666666;" vertex="1" parent="l8-0bC7ax2X3n8z345mS-5">
          <mxGeometry x="10" y="10" width="110" height="100" as="geometry" />
        </mxCell>
        <mxCell id="l8-0bC7ax2X3n8z345mS-7" value="yes" style="edgeStyle=orthogonalEdgeStyle;rounded=0;orthogonalLoop=1;jettySize=auto;html=1;entryX=0.5;entryY=0;entryDx=0;entryDy=0;exitX=1;exitY=0.5;exitDx=0;exitDy=0;" edge="1" source="l8-0bC7ax2X3n8z345mS-6" parent="l8-0bC7ax2X3n8z345mS-5" target="l8-0bC7ax2X3n8z345mS-14">
          <mxGeometry relative="1" as="geometry">
            <mxPoint x="182.03999999999996" y="101.69999999999993" as="targetPoint" />
          </mxGeometry>
        </mxCell>
        <mxCell id="l8-0bC7ax2X3n8z345mS-14" value="response with error" style="rounded=1;whiteSpace=wrap;html=1;fillColor=#0050ef;fontColor=#ffffff;strokeColor=#001DBC;" vertex="1" parent="l8-0bC7ax2X3n8z345mS-5">
          <mxGeometry x="101" y="105" width="104.07" height="53.12" as="geometry" />
        </mxCell>
        <mxCell id="l8-0bC7ax2X3n8z345mS-8" value="no" style="edgeStyle=orthogonalEdgeStyle;rounded=0;orthogonalLoop=1;jettySize=auto;html=1;entryX=0.25;entryY=1;entryDx=0;entryDy=0;" edge="1" parent="l8-0bC7ax2X3n8z345mS-5">
          <mxGeometry relative="1" as="geometry">
            <mxPoint x="52" y="173" as="targetPoint" />
            <mxPoint x="62" y="109.99999999999989" as="sourcePoint" />
            <Array as="points">
              <mxPoint x="62" y="130" />
              <mxPoint x="52" y="130" />
            </Array>
          </mxGeometry>
        </mxCell>
        <mxCell id="WjPGS6aV06rKY_8aKDoy-7" value="Signin (email, password)" style="rounded=1;whiteSpace=wrap;html=1;fontStyle=1;fontSize=15;" parent="1" vertex="1">
          <mxGeometry x="672" y="273" width="185" height="60" as="geometry" />
        </mxCell>
        <mxCell id="WjPGS6aV06rKY_8aKDoy-10" value="server side process" style="swimlane;startSize=0;swimlaneFillColor=#4C0099;fontStyle=0;align=left;fontSize=9;" parent="1" vertex="1">
          <mxGeometry x="585" y="370" width="360" height="200" as="geometry" />
        </mxCell>
        <mxCell id="WjPGS6aV06rKY_8aKDoy-12" style="edgeStyle=orthogonalEdgeStyle;rounded=0;orthogonalLoop=1;jettySize=auto;html=1;entryX=0;entryY=0.5;entryDx=0;entryDy=0;" parent="WjPGS6aV06rKY_8aKDoy-10" source="_Lz6I93l5ru_T4zFbFvI-83" target="WjPGS6aV06rKY_8aKDoy-11" edge="1">
          <mxGeometry relative="1" as="geometry" />
        </mxCell>
        <mxCell id="_Lz6I93l5ru_T4zFbFvI-83" value="save refresh_token to the DB" style="rounded=1;whiteSpace=wrap;html=1;fillColor=#0050ef;fontColor=#ffffff;strokeColor=#001DBC;" parent="WjPGS6aV06rKY_8aKDoy-10" vertex="1">
          <mxGeometry x="6" y="65.00000000000003" width="101.53" height="49.17" as="geometry" />
        </mxCell>
        <mxCell id="_Lz6I93l5ru_T4zFbFvI-84" value="yes" style="edgeStyle=orthogonalEdgeStyle;rounded=0;orthogonalLoop=1;jettySize=auto;html=1;entryX=1;entryY=0.5;entryDx=0;entryDy=0;exitX=0;exitY=0.5;exitDx=0;exitDy=0;fillColor=none;" parent="WjPGS6aV06rKY_8aKDoy-10" source="_Lz6I93l5ru_T4zFbFvI-85" target="_Lz6I93l5ru_T4zFbFvI-83" edge="1">
          <mxGeometry relative="1" as="geometry" />
        </mxCell>
        <mxCell id="_Lz6I93l5ru_T4zFbFvI-85" value="valid&lt;br&gt;email &amp;amp;&lt;br&gt;password ?" style="rhombus;whiteSpace=wrap;html=1;fillColor=#f5f5f5;fontColor=#333333;strokeColor=#666666;" parent="WjPGS6aV06rKY_8aKDoy-10" vertex="1">
          <mxGeometry x="157" y="33.92000000000007" width="100" height="110.65" as="geometry" />
        </mxCell>
        <mxCell id="_Lz6I93l5ru_T4zFbFvI-86" value="responce with error" style="rounded=1;whiteSpace=wrap;html=1;fillColor=#0050ef;fontColor=#ffffff;strokeColor=#001DBC;" parent="WjPGS6aV06rKY_8aKDoy-10" vertex="1">
          <mxGeometry x="247" y="13.590000000000032" width="104.07" height="53.12" as="geometry" />
        </mxCell>
        <mxCell id="_Lz6I93l5ru_T4zFbFvI-87" value="no" style="edgeStyle=orthogonalEdgeStyle;rounded=0;orthogonalLoop=1;jettySize=auto;html=1;entryX=0.5;entryY=1;entryDx=0;entryDy=0;exitX=1;exitY=0.5;exitDx=0;exitDy=0;" parent="WjPGS6aV06rKY_8aKDoy-10" source="_Lz6I93l5ru_T4zFbFvI-85" target="_Lz6I93l5ru_T4zFbFvI-86" edge="1">
          <mxGeometry relative="1" as="geometry" />
        </mxCell>
        <mxCell id="WjPGS6aV06rKY_8aKDoy-11" value="responce with tokens" style="rounded=1;whiteSpace=wrap;html=1;fillColor=#0050ef;fontColor=#ffffff;strokeColor=#001DBC;" parent="WjPGS6aV06rKY_8aKDoy-10" vertex="1">
          <mxGeometry x="76" y="137" width="101.53" height="49.17" as="geometry" />
        </mxCell>
        <mxCell id="l8-0bC7ax2X3n8z345mS-1" value="server side process" style="swimlane;startSize=0;swimlaneFillColor=#4C0099;fontStyle=0;align=left;fontSize=9;" vertex="1" parent="1">
          <mxGeometry x="1021" y="370" width="309" height="330" as="geometry" />
        </mxCell>
        <mxCell id="2UZ3ieq_R4y29duBAabU-2" value="no" style="edgeStyle=orthogonalEdgeStyle;rounded=0;orthogonalLoop=1;jettySize=auto;html=1;entryX=0;entryY=0.5;entryDx=0;entryDy=0;exitX=0.5;exitY=1;exitDx=0;exitDy=0;" edge="1" parent="l8-0bC7ax2X3n8z345mS-1" source="l8-0bC7ax2X3n8z345mS-2" target="2UZ3ieq_R4y29duBAabU-1">
          <mxGeometry relative="1" as="geometry" />
        </mxCell>
        <mxCell id="l8-0bC7ax2X3n8z345mS-2" value="is&lt;div&gt;the only&lt;div&gt;loginabl&lt;/div&gt;&lt;/div&gt;&lt;div&gt;VM&lt;/div&gt;" style="rhombus;whiteSpace=wrap;html=1;fillColor=#f5f5f5;fontColor=#333333;strokeColor=#666666;" vertex="1" parent="l8-0bC7ax2X3n8z345mS-1">
          <mxGeometry x="13" y="136" width="95" height="80" as="geometry" />
        </mxCell>
        <mxCell id="l8-0bC7ax2X3n8z345mS-3" value="yes" style="edgeStyle=orthogonalEdgeStyle;rounded=0;orthogonalLoop=1;jettySize=auto;html=1;entryX=0.5;entryY=1;entryDx=0;entryDy=0;exitX=1;exitY=0.5;exitDx=0;exitDy=0;" edge="1" source="l8-0bC7ax2X3n8z345mS-2" parent="l8-0bC7ax2X3n8z345mS-1" target="VdWX-pFILzelIidHuEOV-1">
          <mxGeometry relative="1" as="geometry">
            <mxPoint x="237.03999999999996" y="91.69999999999993" as="targetPoint" />
          </mxGeometry>
        </mxCell>
        <mxCell id="VdWX-pFILzelIidHuEOV-1" value="responce with error" style="rounded=1;whiteSpace=wrap;html=1;fillColor=#0050ef;fontColor=#ffffff;strokeColor=#001DBC;" vertex="1" parent="l8-0bC7ax2X3n8z345mS-1">
          <mxGeometry x="196" y="102" width="104.07" height="53.12" as="geometry" />
        </mxCell>
        <mxCell id="rMuXZbr-IJ7fJMd5YltB-1" value="is&amp;nbsp;&lt;span style=&quot;background-color: initial;&quot;&gt;valid&amp;nbsp;&lt;/span&gt;&lt;span style=&quot;background-color: initial;&quot;&gt;VM&lt;/span&gt;&lt;div&gt;&lt;span style=&quot;background-color: initial;&quot;&gt;&amp;amp;&lt;/span&gt;&lt;/div&gt;&lt;div&gt;&lt;span style=&quot;background-color: initial;&quot;&gt;is linked to&amp;nbsp;&lt;/span&gt;&lt;span style=&quot;background-color: initial;&quot;&gt;me&lt;/span&gt;&lt;/div&gt;" style="rhombus;whiteSpace=wrap;html=1;fillColor=#f5f5f5;fontColor=#333333;strokeColor=#666666;" vertex="1" parent="l8-0bC7ax2X3n8z345mS-1">
          <mxGeometry x="84" y="5" width="140" height="114" as="geometry" />
        </mxCell>
        <mxCell id="rMuXZbr-IJ7fJMd5YltB-2" value="no" style="edgeStyle=orthogonalEdgeStyle;rounded=0;orthogonalLoop=1;jettySize=auto;html=1;entryX=0.5;entryY=0;entryDx=0;entryDy=0;exitX=1;exitY=0.5;exitDx=0;exitDy=0;" edge="1" source="rMuXZbr-IJ7fJMd5YltB-1" parent="l8-0bC7ax2X3n8z345mS-1" target="VdWX-pFILzelIidHuEOV-1">
          <mxGeometry relative="1" as="geometry">
            <mxPoint x="27.039999999999964" y="-78.30000000000007" as="targetPoint" />
          </mxGeometry>
        </mxCell>
        <mxCell id="rMuXZbr-IJ7fJMd5YltB-3" value="yes" style="edgeStyle=orthogonalEdgeStyle;rounded=0;orthogonalLoop=1;jettySize=auto;html=1;entryX=0.5;entryY=0;entryDx=0;entryDy=0;exitX=0;exitY=0.5;exitDx=0;exitDy=0;" edge="1" source="rMuXZbr-IJ7fJMd5YltB-1" parent="l8-0bC7ax2X3n8z345mS-1" target="l8-0bC7ax2X3n8z345mS-2">
          <mxGeometry relative="1" as="geometry">
            <mxPoint x="-64.96000000000004" y="-39.30000000000007" as="targetPoint" />
          </mxGeometry>
        </mxCell>
        <mxCell id="2UZ3ieq_R4y29duBAabU-6" style="edgeStyle=orthogonalEdgeStyle;rounded=0;orthogonalLoop=1;jettySize=auto;html=1;entryX=1;entryY=0.5;entryDx=0;entryDy=0;exitX=0.5;exitY=1;exitDx=0;exitDy=0;" edge="1" parent="l8-0bC7ax2X3n8z345mS-1" source="2UZ3ieq_R4y29duBAabU-1" target="2UZ3ieq_R4y29duBAabU-5">
          <mxGeometry relative="1" as="geometry" />
        </mxCell>
        <mxCell id="2UZ3ieq_R4y29duBAabU-1" value="notify the VM&lt;div&gt;via email or SMS&lt;/div&gt;" style="rounded=1;whiteSpace=wrap;html=1;fillColor=#0050ef;fontColor=#ffffff;strokeColor=#001DBC;" vertex="1" parent="l8-0bC7ax2X3n8z345mS-1">
          <mxGeometry x="160" y="209" width="112.07" height="53.12" as="geometry" />
        </mxCell>
        <mxCell id="2UZ3ieq_R4y29duBAabU-5" value="delete the verification method" style="rounded=1;whiteSpace=wrap;html=1;fillColor=#0050ef;fontColor=#ffffff;strokeColor=#001DBC;" vertex="1" parent="l8-0bC7ax2X3n8z345mS-1">
          <mxGeometry x="29" y="267" width="112.07" height="53.12" as="geometry" />
        </mxCell>
        <mxCell id="2UZ3ieq_R4y29duBAabU-4" style="edgeStyle=orthogonalEdgeStyle;rounded=0;orthogonalLoop=1;jettySize=auto;html=1;entryX=0.5;entryY=0;entryDx=0;entryDy=0;" edge="1" parent="1" source="2UZ3ieq_R4y29duBAabU-3" target="l8-0bC7ax2X3n8z345mS-1">
          <mxGeometry relative="1" as="geometry" />
        </mxCell>
        <mxCell id="2UZ3ieq_R4y29duBAabU-3" value="Unlink Email (verificationMethod_id)" style="rounded=1;whiteSpace=wrap;html=1;fontStyle=1;fontSize=15;" vertex="1" parent="1">
          <mxGeometry x="1090" y="273" width="171" height="60" as="geometry" />
        </mxCell>
      </root>
    </mxGraphModel>
  </diagram>
  <diagram id="CxpQJB-mhpuOJnPQDDZv" name="Page-2">
    <mxGraphModel dx="1235" dy="614" grid="1" gridSize="10" guides="1" tooltips="1" connect="1" arrows="1" fold="1" page="1" pageScale="1" pageWidth="827" pageHeight="1169" math="0" shadow="0">
      <root>
        <mxCell id="0" />
        <mxCell id="1" parent="0" />
        <mxCell id="o5zWqy-yZP3sflRj8p0Q-1" value="Verification Method" style="rounded=0;whiteSpace=wrap;html=1;" vertex="1" parent="1">
          <mxGeometry x="240" y="160" width="120" height="60" as="geometry" />
        </mxCell>
        <mxCell id="o5zWqy-yZP3sflRj8p0Q-2" value="&lt;font style=&quot;&quot;&gt;&lt;u style=&quot;font-size: 16px;&quot;&gt;identifier&lt;/u&gt;&lt;font style=&quot;font-size: 14px;&quot;&gt; : email | phone&lt;/font&gt;&lt;/font&gt;" style="ellipse;whiteSpace=wrap;html=1;" vertex="1" parent="1">
          <mxGeometry y="101" width="170" height="60" as="geometry" />
        </mxCell>
        <mxCell id="o5zWqy-yZP3sflRj8p0Q-4" value="is_verifyed" style="ellipse;whiteSpace=wrap;html=1;" vertex="1" parent="1">
          <mxGeometry x="240" y="100" width="100" height="40" as="geometry" />
        </mxCell>
        <mxCell id="o5zWqy-yZP3sflRj8p0Q-5" value="is_loginable" style="ellipse;whiteSpace=wrap;html=1;" vertex="1" parent="1">
          <mxGeometry x="360" y="110" width="90" height="30" as="geometry" />
        </mxCell>
        <mxCell id="o5zWqy-yZP3sflRj8p0Q-6" value="hashed password?" style="ellipse;whiteSpace=wrap;html=1;" vertex="1" parent="1">
          <mxGeometry x="87" y="194" width="110" height="50" as="geometry" />
        </mxCell>
        <mxCell id="o5zWqy-yZP3sflRj8p0Q-7" value="" style="endArrow=none;html=1;rounded=0;entryX=0;entryY=0.5;entryDx=0;entryDy=0;exitX=1;exitY=0.5;exitDx=0;exitDy=0;" edge="1" parent="1" source="o5zWqy-yZP3sflRj8p0Q-6" target="o5zWqy-yZP3sflRj8p0Q-1">
          <mxGeometry width="50" height="50" relative="1" as="geometry">
            <mxPoint x="390" y="300" as="sourcePoint" />
            <mxPoint x="440" y="250" as="targetPoint" />
          </mxGeometry>
        </mxCell>
        <mxCell id="o5zWqy-yZP3sflRj8p0Q-8" value="" style="endArrow=none;html=1;rounded=0;entryX=0;entryY=1;entryDx=0;entryDy=0;exitX=1;exitY=0.25;exitDx=0;exitDy=0;" edge="1" parent="1" source="o5zWqy-yZP3sflRj8p0Q-1" target="o5zWqy-yZP3sflRj8p0Q-5">
          <mxGeometry width="50" height="50" relative="1" as="geometry">
            <mxPoint x="380" y="210" as="sourcePoint" />
            <mxPoint x="430" y="160" as="targetPoint" />
          </mxGeometry>
        </mxCell>
        <mxCell id="o5zWqy-yZP3sflRj8p0Q-10" value="" style="endArrow=none;html=1;rounded=0;exitX=1;exitY=1;exitDx=0;exitDy=0;entryX=0;entryY=0;entryDx=0;entryDy=0;" edge="1" parent="1" source="o5zWqy-yZP3sflRj8p0Q-2" target="o5zWqy-yZP3sflRj8p0Q-1">
          <mxGeometry width="50" height="50" relative="1" as="geometry">
            <mxPoint x="220" y="180" as="sourcePoint" />
            <mxPoint x="270" y="130" as="targetPoint" />
          </mxGeometry>
        </mxCell>
        <mxCell id="o5zWqy-yZP3sflRj8p0Q-11" value="" style="endArrow=none;html=1;rounded=0;entryX=0.5;entryY=1;entryDx=0;entryDy=0;exitX=0.5;exitY=0;exitDx=0;exitDy=0;" edge="1" parent="1" source="o5zWqy-yZP3sflRj8p0Q-1" target="o5zWqy-yZP3sflRj8p0Q-4">
          <mxGeometry width="50" height="50" relative="1" as="geometry">
            <mxPoint x="240" y="170" as="sourcePoint" />
            <mxPoint x="290" y="120" as="targetPoint" />
          </mxGeometry>
        </mxCell>
        <mxCell id="o5zWqy-yZP3sflRj8p0Q-19" value="" style="endArrow=none;html=1;rounded=0;exitX=0.5;exitY=1;exitDx=0;exitDy=0;entryX=0.052;entryY=0.747;entryDx=0;entryDy=0;entryPerimeter=0;" edge="1" parent="1" source="o5zWqy-yZP3sflRj8p0Q-1" target="o5zWqy-yZP3sflRj8p0Q-39">
          <mxGeometry width="50" height="50" relative="1" as="geometry">
            <mxPoint x="610" y="190" as="sourcePoint" />
            <mxPoint x="660" y="140" as="targetPoint" />
          </mxGeometry>
        </mxCell>
        <mxCell id="o5zWqy-yZP3sflRj8p0Q-21" value="Account" style="rounded=0;whiteSpace=wrap;html=1;" vertex="1" parent="1">
          <mxGeometry x="169" y="470" width="120" height="60" as="geometry" />
        </mxCell>
        <mxCell id="o5zWqy-yZP3sflRj8p0Q-22" value="&lt;u&gt;&lt;font style=&quot;font-size: 16px;&quot;&gt;&lt;b&gt;id&lt;/b&gt;&lt;/font&gt;&lt;/u&gt;" style="ellipse;whiteSpace=wrap;html=1;" vertex="1" parent="1">
          <mxGeometry x="59" y="410" width="90" height="40" as="geometry" />
        </mxCell>
        <mxCell id="o5zWqy-yZP3sflRj8p0Q-23" value="name" style="ellipse;whiteSpace=wrap;html=1;" vertex="1" parent="1">
          <mxGeometry x="33" y="530" width="100" height="40" as="geometry" />
        </mxCell>
        <mxCell id="o5zWqy-yZP3sflRj8p0Q-24" value="image_url" style="ellipse;whiteSpace=wrap;html=1;" vertex="1" parent="1">
          <mxGeometry x="339" y="485" width="90" height="30" as="geometry" />
        </mxCell>
        <mxCell id="o5zWqy-yZP3sflRj8p0Q-27" value="" style="endArrow=none;html=1;rounded=0;entryX=0;entryY=1;entryDx=0;entryDy=0;exitX=1;exitY=0.75;exitDx=0;exitDy=0;" edge="1" parent="1" source="o5zWqy-yZP3sflRj8p0Q-21" target="o5zWqy-yZP3sflRj8p0Q-24">
          <mxGeometry width="50" height="50" relative="1" as="geometry">
            <mxPoint x="119" y="220" as="sourcePoint" />
            <mxPoint x="169" y="170" as="targetPoint" />
          </mxGeometry>
        </mxCell>
        <mxCell id="o5zWqy-yZP3sflRj8p0Q-28" value="" style="endArrow=none;html=1;rounded=0;exitX=1;exitY=1;exitDx=0;exitDy=0;entryX=0;entryY=0;entryDx=0;entryDy=0;" edge="1" parent="1" source="o5zWqy-yZP3sflRj8p0Q-22" target="o5zWqy-yZP3sflRj8p0Q-21">
          <mxGeometry width="50" height="50" relative="1" as="geometry">
            <mxPoint x="-41" y="190" as="sourcePoint" />
            <mxPoint x="9" y="140" as="targetPoint" />
          </mxGeometry>
        </mxCell>
        <mxCell id="o5zWqy-yZP3sflRj8p0Q-29" value="" style="endArrow=none;html=1;rounded=0;entryX=1;entryY=0;entryDx=0;entryDy=0;exitX=0;exitY=1;exitDx=0;exitDy=0;" edge="1" parent="1" source="o5zWqy-yZP3sflRj8p0Q-21" target="o5zWqy-yZP3sflRj8p0Q-23">
          <mxGeometry width="50" height="50" relative="1" as="geometry">
            <mxPoint x="-21" y="180" as="sourcePoint" />
            <mxPoint x="29" y="130" as="targetPoint" />
          </mxGeometry>
        </mxCell>
        <mxCell id="o5zWqy-yZP3sflRj8p0Q-31" value="...account_data" style="ellipse;whiteSpace=wrap;html=1;" vertex="1" parent="1">
          <mxGeometry x="209" y="560" width="120" height="50" as="geometry" />
        </mxCell>
        <mxCell id="o5zWqy-yZP3sflRj8p0Q-32" value="" style="endArrow=none;html=1;rounded=0;entryX=0.75;entryY=1;entryDx=0;entryDy=0;exitX=0.5;exitY=0;exitDx=0;exitDy=0;" edge="1" parent="1" source="o5zWqy-yZP3sflRj8p0Q-31" target="o5zWqy-yZP3sflRj8p0Q-21">
          <mxGeometry width="50" height="50" relative="1" as="geometry">
            <mxPoint x="159" y="620" as="sourcePoint" />
            <mxPoint x="209" y="570" as="targetPoint" />
          </mxGeometry>
        </mxCell>
        <mxCell id="o5zWqy-yZP3sflRj8p0Q-36" value="can be email or phone number" style="text;html=1;strokeColor=none;fillColor=none;align=center;verticalAlign=middle;whiteSpace=wrap;rounded=0;fontColor=#d42121;" vertex="1" parent="1">
          <mxGeometry x="8" y="71" width="90" height="30" as="geometry" />
        </mxCell>
        <mxCell id="o5zWqy-yZP3sflRj8p0Q-38" value="used in &#39;e&#39; type loginable VMs" style="text;html=1;strokeColor=none;fillColor=none;align=center;verticalAlign=middle;whiteSpace=wrap;rounded=0;fontColor=#d42121;" vertex="1" parent="1">
          <mxGeometry x="6" y="185" width="90" height="30" as="geometry" />
        </mxCell>
        <mxCell id="o5zWqy-yZP3sflRj8p0Q-39" value="type : &#39;p&#39; | &#39;e&#39;" style="ellipse;whiteSpace=wrap;html=1;" vertex="1" parent="1">
          <mxGeometry x="189" y="240" width="100" height="30" as="geometry" />
        </mxCell>
        <mxCell id="o5zWqy-yZP3sflRj8p0Q-40" value="linked to" style="rhombus;whiteSpace=wrap;html=1;" vertex="1" parent="1">
          <mxGeometry x="356" y="320" width="80" height="80" as="geometry" />
        </mxCell>
        <mxCell id="o5zWqy-yZP3sflRj8p0Q-45" value="" style="edgeStyle=entityRelationEdgeStyle;fontSize=12;html=1;endArrow=ERone;endFill=1;rounded=0;entryX=1;entryY=0.25;entryDx=0;entryDy=0;exitX=0;exitY=0.5;exitDx=0;exitDy=0;" edge="1" parent="1" source="o5zWqy-yZP3sflRj8p0Q-40" target="o5zWqy-yZP3sflRj8p0Q-21">
          <mxGeometry width="100" height="100" relative="1" as="geometry">
            <mxPoint x="297" y="600" as="sourcePoint" />
            <mxPoint x="261" y="410" as="targetPoint" />
          </mxGeometry>
        </mxCell>
        <mxCell id="o5zWqy-yZP3sflRj8p0Q-46" value="" style="edgeStyle=entityRelationEdgeStyle;fontSize=12;html=1;endArrow=ERoneToMany;rounded=0;entryX=1;entryY=0.5;entryDx=0;entryDy=0;exitX=0.5;exitY=0;exitDx=0;exitDy=0;" edge="1" parent="1" source="o5zWqy-yZP3sflRj8p0Q-40" target="o5zWqy-yZP3sflRj8p0Q-1">
          <mxGeometry width="100" height="100" relative="1" as="geometry">
            <mxPoint x="230" y="410" as="sourcePoint" />
            <mxPoint x="330" y="310" as="targetPoint" />
          </mxGeometry>
        </mxCell>
        <mxCell id="9-r3AcNAB6-tvo68kVw7-1" value="&lt;font style=&quot;font-size: 16px;&quot;&gt;&lt;b&gt;id&lt;/b&gt;&lt;/font&gt;" style="ellipse;whiteSpace=wrap;html=1;align=center;fontStyle=4;" vertex="1" parent="1">
          <mxGeometry x="169" y="100" width="63" height="30" as="geometry" />
        </mxCell>
        <mxCell id="9-r3AcNAB6-tvo68kVw7-2" value="" style="endArrow=none;html=1;rounded=0;entryX=0.25;entryY=0;entryDx=0;entryDy=0;exitX=1;exitY=1;exitDx=0;exitDy=0;" edge="1" parent="1" source="9-r3AcNAB6-tvo68kVw7-1" target="o5zWqy-yZP3sflRj8p0Q-1">
          <mxGeometry relative="1" as="geometry">
            <mxPoint x="10" y="240" as="sourcePoint" />
            <mxPoint x="170" y="240" as="targetPoint" />
          </mxGeometry>
        </mxCell>
        <object label="Verification Method" type="&#39;e&#39; | &#39;p&#39;" identifier="email | phone" is_verified="bool" is_loginable="bool" hashed_password="null | string" account_id="string" id="wKV96D3HA0CmSMx8KGgX-1">
          <mxCell style="shape=table;startSize=30;container=1;collapsible=1;childLayout=tableLayout;fixedRows=1;rowLines=0;fontStyle=1;align=center;resizeLast=1;html=1;" vertex="1" parent="1">
            <mxGeometry x="460" y="130" width="330" height="240" as="geometry">
              <mxRectangle x="530" y="140" width="150" height="30" as="alternateBounds" />
            </mxGeometry>
          </mxCell>
        </object>
        <mxCell id="wKV96D3HA0CmSMx8KGgX-2" value="" style="shape=tableRow;horizontal=0;startSize=0;swimlaneHead=0;swimlaneBody=0;fillColor=none;collapsible=0;dropTarget=0;points=[[0,0.5],[1,0.5]];portConstraint=eastwest;top=0;left=0;right=0;bottom=1;" vertex="1" parent="wKV96D3HA0CmSMx8KGgX-1">
          <mxGeometry y="30" width="330" height="30" as="geometry" />
        </mxCell>
        <mxCell id="wKV96D3HA0CmSMx8KGgX-3" value="PK" style="shape=partialRectangle;connectable=0;fillColor=none;top=0;left=0;bottom=0;right=0;fontStyle=1;overflow=hidden;whiteSpace=wrap;html=1;" vertex="1" parent="wKV96D3HA0CmSMx8KGgX-2">
          <mxGeometry width="30" height="30" as="geometry">
            <mxRectangle width="30" height="30" as="alternateBounds" />
          </mxGeometry>
        </mxCell>
        <mxCell id="wKV96D3HA0CmSMx8KGgX-30" value="id" style="shape=partialRectangle;connectable=0;fillColor=none;top=0;left=0;bottom=0;right=0;align=left;spacingLeft=6;fontStyle=5;overflow=hidden;whiteSpace=wrap;html=1;" vertex="1" parent="wKV96D3HA0CmSMx8KGgX-2">
          <mxGeometry x="30" width="150" height="30" as="geometry">
            <mxRectangle width="150" height="30" as="alternateBounds" />
          </mxGeometry>
        </mxCell>
        <mxCell id="wKV96D3HA0CmSMx8KGgX-4" value="sgtring" style="shape=partialRectangle;connectable=0;fillColor=none;top=0;left=0;bottom=0;right=0;align=left;spacingLeft=6;fontStyle=5;overflow=hidden;whiteSpace=wrap;html=1;" vertex="1" parent="wKV96D3HA0CmSMx8KGgX-2">
          <mxGeometry x="180" width="150" height="30" as="geometry">
            <mxRectangle width="150" height="30" as="alternateBounds" />
          </mxGeometry>
        </mxCell>
        <mxCell id="wKV96D3HA0CmSMx8KGgX-24" value="" style="shape=tableRow;horizontal=0;startSize=0;swimlaneHead=0;swimlaneBody=0;fillColor=none;collapsible=0;dropTarget=0;points=[[0,0.5],[1,0.5]];portConstraint=eastwest;top=0;left=0;right=0;bottom=1;" vertex="1" parent="wKV96D3HA0CmSMx8KGgX-1">
          <mxGeometry y="60" width="330" height="30" as="geometry" />
        </mxCell>
        <mxCell id="wKV96D3HA0CmSMx8KGgX-25" value="PK" style="shape=partialRectangle;connectable=0;fillColor=none;top=0;left=0;bottom=0;right=0;fontStyle=1;overflow=hidden;whiteSpace=wrap;html=1;" vertex="1" parent="wKV96D3HA0CmSMx8KGgX-24">
          <mxGeometry width="30" height="30" as="geometry">
            <mxRectangle width="30" height="30" as="alternateBounds" />
          </mxGeometry>
        </mxCell>
        <mxCell id="wKV96D3HA0CmSMx8KGgX-31" value="identifier" style="shape=partialRectangle;connectable=0;fillColor=none;top=0;left=0;bottom=0;right=0;align=left;spacingLeft=6;fontStyle=5;overflow=hidden;whiteSpace=wrap;html=1;" vertex="1" parent="wKV96D3HA0CmSMx8KGgX-24">
          <mxGeometry x="30" width="150" height="30" as="geometry">
            <mxRectangle width="150" height="30" as="alternateBounds" />
          </mxGeometry>
        </mxCell>
        <mxCell id="wKV96D3HA0CmSMx8KGgX-26" value="string" style="shape=partialRectangle;connectable=0;fillColor=none;top=0;left=0;bottom=0;right=0;align=left;spacingLeft=6;fontStyle=5;overflow=hidden;whiteSpace=wrap;html=1;" vertex="1" parent="wKV96D3HA0CmSMx8KGgX-24">
          <mxGeometry x="180" width="150" height="30" as="geometry">
            <mxRectangle width="150" height="30" as="alternateBounds" />
          </mxGeometry>
        </mxCell>
        <mxCell id="wKV96D3HA0CmSMx8KGgX-27" value="" style="shape=tableRow;horizontal=0;startSize=0;swimlaneHead=0;swimlaneBody=0;fillColor=none;collapsible=0;dropTarget=0;points=[[0,0.5],[1,0.5]];portConstraint=eastwest;top=0;left=0;right=0;bottom=1;" vertex="1" parent="wKV96D3HA0CmSMx8KGgX-1">
          <mxGeometry y="90" width="330" height="30" as="geometry" />
        </mxCell>
        <mxCell id="wKV96D3HA0CmSMx8KGgX-28" value="FK" style="shape=partialRectangle;connectable=0;fillColor=none;top=0;left=0;bottom=0;right=0;fontStyle=1;overflow=hidden;whiteSpace=wrap;html=1;" vertex="1" parent="wKV96D3HA0CmSMx8KGgX-27">
          <mxGeometry width="30" height="30" as="geometry">
            <mxRectangle width="30" height="30" as="alternateBounds" />
          </mxGeometry>
        </mxCell>
        <mxCell id="wKV96D3HA0CmSMx8KGgX-32" value="account_id" style="shape=partialRectangle;connectable=0;fillColor=none;top=0;left=0;bottom=0;right=0;align=left;spacingLeft=6;fontStyle=5;overflow=hidden;whiteSpace=wrap;html=1;" vertex="1" parent="wKV96D3HA0CmSMx8KGgX-27">
          <mxGeometry x="30" width="150" height="30" as="geometry">
            <mxRectangle width="150" height="30" as="alternateBounds" />
          </mxGeometry>
        </mxCell>
        <mxCell id="wKV96D3HA0CmSMx8KGgX-29" value="null | string" style="shape=partialRectangle;connectable=0;fillColor=none;top=0;left=0;bottom=0;right=0;align=left;spacingLeft=6;fontStyle=5;overflow=hidden;whiteSpace=wrap;html=1;" vertex="1" parent="wKV96D3HA0CmSMx8KGgX-27">
          <mxGeometry x="180" width="150" height="30" as="geometry">
            <mxRectangle width="150" height="30" as="alternateBounds" />
          </mxGeometry>
        </mxCell>
        <mxCell id="wKV96D3HA0CmSMx8KGgX-21" value="" style="shape=tableRow;horizontal=0;startSize=0;swimlaneHead=0;swimlaneBody=0;fillColor=none;collapsible=0;dropTarget=0;points=[[0,0.5],[1,0.5]];portConstraint=eastwest;top=0;left=0;right=0;bottom=0;" vertex="1" parent="wKV96D3HA0CmSMx8KGgX-1">
          <mxGeometry y="120" width="330" height="30" as="geometry" />
        </mxCell>
        <mxCell id="wKV96D3HA0CmSMx8KGgX-22" value="" style="shape=partialRectangle;connectable=0;fillColor=none;top=0;left=0;bottom=0;right=0;editable=1;overflow=hidden;whiteSpace=wrap;html=1;" vertex="1" parent="wKV96D3HA0CmSMx8KGgX-21">
          <mxGeometry width="30" height="30" as="geometry">
            <mxRectangle width="30" height="30" as="alternateBounds" />
          </mxGeometry>
        </mxCell>
        <mxCell id="wKV96D3HA0CmSMx8KGgX-33" value="type&lt;br&gt;" style="shape=partialRectangle;connectable=0;fillColor=none;top=0;left=0;bottom=0;right=0;align=left;spacingLeft=6;overflow=hidden;whiteSpace=wrap;html=1;" vertex="1" parent="wKV96D3HA0CmSMx8KGgX-21">
          <mxGeometry x="30" width="150" height="30" as="geometry">
            <mxRectangle width="150" height="30" as="alternateBounds" />
          </mxGeometry>
        </mxCell>
        <mxCell id="wKV96D3HA0CmSMx8KGgX-23" value="&#39;e&#39; | &#39;p&#39;" style="shape=partialRectangle;connectable=0;fillColor=none;top=0;left=0;bottom=0;right=0;align=left;spacingLeft=6;overflow=hidden;whiteSpace=wrap;html=1;" vertex="1" parent="wKV96D3HA0CmSMx8KGgX-21">
          <mxGeometry x="180" width="150" height="30" as="geometry">
            <mxRectangle width="150" height="30" as="alternateBounds" />
          </mxGeometry>
        </mxCell>
        <mxCell id="wKV96D3HA0CmSMx8KGgX-18" value="" style="shape=tableRow;horizontal=0;startSize=0;swimlaneHead=0;swimlaneBody=0;fillColor=none;collapsible=0;dropTarget=0;points=[[0,0.5],[1,0.5]];portConstraint=eastwest;top=0;left=0;right=0;bottom=0;" vertex="1" parent="wKV96D3HA0CmSMx8KGgX-1">
          <mxGeometry y="150" width="330" height="30" as="geometry" />
        </mxCell>
        <mxCell id="wKV96D3HA0CmSMx8KGgX-19" value="" style="shape=partialRectangle;connectable=0;fillColor=none;top=0;left=0;bottom=0;right=0;editable=1;overflow=hidden;whiteSpace=wrap;html=1;" vertex="1" parent="wKV96D3HA0CmSMx8KGgX-18">
          <mxGeometry width="30" height="30" as="geometry">
            <mxRectangle width="30" height="30" as="alternateBounds" />
          </mxGeometry>
        </mxCell>
        <mxCell id="wKV96D3HA0CmSMx8KGgX-34" value="is_verified" style="shape=partialRectangle;connectable=0;fillColor=none;top=0;left=0;bottom=0;right=0;align=left;spacingLeft=6;overflow=hidden;whiteSpace=wrap;html=1;" vertex="1" parent="wKV96D3HA0CmSMx8KGgX-18">
          <mxGeometry x="30" width="150" height="30" as="geometry">
            <mxRectangle width="150" height="30" as="alternateBounds" />
          </mxGeometry>
        </mxCell>
        <mxCell id="wKV96D3HA0CmSMx8KGgX-20" value="bool" style="shape=partialRectangle;connectable=0;fillColor=none;top=0;left=0;bottom=0;right=0;align=left;spacingLeft=6;overflow=hidden;whiteSpace=wrap;html=1;" vertex="1" parent="wKV96D3HA0CmSMx8KGgX-18">
          <mxGeometry x="180" width="150" height="30" as="geometry">
            <mxRectangle width="150" height="30" as="alternateBounds" />
          </mxGeometry>
        </mxCell>
        <mxCell id="wKV96D3HA0CmSMx8KGgX-15" value="" style="shape=tableRow;horizontal=0;startSize=0;swimlaneHead=0;swimlaneBody=0;fillColor=none;collapsible=0;dropTarget=0;points=[[0,0.5],[1,0.5]];portConstraint=eastwest;top=0;left=0;right=0;bottom=0;" vertex="1" parent="wKV96D3HA0CmSMx8KGgX-1">
          <mxGeometry y="180" width="330" height="30" as="geometry" />
        </mxCell>
        <mxCell id="wKV96D3HA0CmSMx8KGgX-16" value="" style="shape=partialRectangle;connectable=0;fillColor=none;top=0;left=0;bottom=0;right=0;editable=1;overflow=hidden;whiteSpace=wrap;html=1;" vertex="1" parent="wKV96D3HA0CmSMx8KGgX-15">
          <mxGeometry width="30" height="30" as="geometry">
            <mxRectangle width="30" height="30" as="alternateBounds" />
          </mxGeometry>
        </mxCell>
        <mxCell id="wKV96D3HA0CmSMx8KGgX-35" value="is_loginable" style="shape=partialRectangle;connectable=0;fillColor=none;top=0;left=0;bottom=0;right=0;align=left;spacingLeft=6;overflow=hidden;whiteSpace=wrap;html=1;" vertex="1" parent="wKV96D3HA0CmSMx8KGgX-15">
          <mxGeometry x="30" width="150" height="30" as="geometry">
            <mxRectangle width="150" height="30" as="alternateBounds" />
          </mxGeometry>
        </mxCell>
        <mxCell id="wKV96D3HA0CmSMx8KGgX-17" value="bool" style="shape=partialRectangle;connectable=0;fillColor=none;top=0;left=0;bottom=0;right=0;align=left;spacingLeft=6;overflow=hidden;whiteSpace=wrap;html=1;" vertex="1" parent="wKV96D3HA0CmSMx8KGgX-15">
          <mxGeometry x="180" width="150" height="30" as="geometry">
            <mxRectangle width="150" height="30" as="alternateBounds" />
          </mxGeometry>
        </mxCell>
        <mxCell id="wKV96D3HA0CmSMx8KGgX-5" value="" style="shape=tableRow;horizontal=0;startSize=0;swimlaneHead=0;swimlaneBody=0;fillColor=none;collapsible=0;dropTarget=0;points=[[0,0.5],[1,0.5]];portConstraint=eastwest;top=0;left=0;right=0;bottom=0;" vertex="1" parent="wKV96D3HA0CmSMx8KGgX-1">
          <mxGeometry y="210" width="330" height="30" as="geometry" />
        </mxCell>
        <mxCell id="wKV96D3HA0CmSMx8KGgX-6" value="" style="shape=partialRectangle;connectable=0;fillColor=none;top=0;left=0;bottom=0;right=0;editable=1;overflow=hidden;whiteSpace=wrap;html=1;" vertex="1" parent="wKV96D3HA0CmSMx8KGgX-5">
          <mxGeometry width="30" height="30" as="geometry">
            <mxRectangle width="30" height="30" as="alternateBounds" />
          </mxGeometry>
        </mxCell>
        <mxCell id="wKV96D3HA0CmSMx8KGgX-36" value="hashed_password" style="shape=partialRectangle;connectable=0;fillColor=none;top=0;left=0;bottom=0;right=0;align=left;spacingLeft=6;overflow=hidden;whiteSpace=wrap;html=1;" vertex="1" parent="wKV96D3HA0CmSMx8KGgX-5">
          <mxGeometry x="30" width="150" height="30" as="geometry">
            <mxRectangle width="150" height="30" as="alternateBounds" />
          </mxGeometry>
        </mxCell>
        <mxCell id="wKV96D3HA0CmSMx8KGgX-7" value="null | string" style="shape=partialRectangle;connectable=0;fillColor=none;top=0;left=0;bottom=0;right=0;align=left;spacingLeft=6;overflow=hidden;whiteSpace=wrap;html=1;" vertex="1" parent="wKV96D3HA0CmSMx8KGgX-5">
          <mxGeometry x="180" width="150" height="30" as="geometry">
            <mxRectangle width="150" height="30" as="alternateBounds" />
          </mxGeometry>
        </mxCell>
        <object label="Account" type="&#39;e&#39; | &#39;p&#39;" identifier="email | phone" is_verified="bool" is_loginable="bool" hashed_password="null | string" account_id="string" id="wKV96D3HA0CmSMx8KGgX-39">
          <mxCell style="shape=table;startSize=30;container=1;collapsible=1;childLayout=tableLayout;fixedRows=1;rowLines=0;fontStyle=1;align=center;resizeLast=1;html=1;" vertex="1" parent="1">
            <mxGeometry x="470" y="420" width="330" height="180" as="geometry">
              <mxRectangle x="530" y="140" width="150" height="30" as="alternateBounds" />
            </mxGeometry>
          </mxCell>
        </object>
        <mxCell id="wKV96D3HA0CmSMx8KGgX-40" value="" style="shape=tableRow;horizontal=0;startSize=0;swimlaneHead=0;swimlaneBody=0;fillColor=none;collapsible=0;dropTarget=0;points=[[0,0.5],[1,0.5]];portConstraint=eastwest;top=0;left=0;right=0;bottom=1;" vertex="1" parent="wKV96D3HA0CmSMx8KGgX-39">
          <mxGeometry y="30" width="330" height="30" as="geometry" />
        </mxCell>
        <mxCell id="wKV96D3HA0CmSMx8KGgX-41" value="PK" style="shape=partialRectangle;connectable=0;fillColor=none;top=0;left=0;bottom=0;right=0;fontStyle=1;overflow=hidden;whiteSpace=wrap;html=1;" vertex="1" parent="wKV96D3HA0CmSMx8KGgX-40">
          <mxGeometry width="30" height="30" as="geometry">
            <mxRectangle width="30" height="30" as="alternateBounds" />
          </mxGeometry>
        </mxCell>
        <mxCell id="wKV96D3HA0CmSMx8KGgX-42" value="id" style="shape=partialRectangle;connectable=0;fillColor=none;top=0;left=0;bottom=0;right=0;align=left;spacingLeft=6;fontStyle=5;overflow=hidden;whiteSpace=wrap;html=1;" vertex="1" parent="wKV96D3HA0CmSMx8KGgX-40">
          <mxGeometry x="30" width="150" height="30" as="geometry">
            <mxRectangle width="150" height="30" as="alternateBounds" />
          </mxGeometry>
        </mxCell>
        <mxCell id="wKV96D3HA0CmSMx8KGgX-43" value="sgtring" style="shape=partialRectangle;connectable=0;fillColor=none;top=0;left=0;bottom=0;right=0;align=left;spacingLeft=6;fontStyle=5;overflow=hidden;whiteSpace=wrap;html=1;" vertex="1" parent="wKV96D3HA0CmSMx8KGgX-40">
          <mxGeometry x="180" width="150" height="30" as="geometry">
            <mxRectangle width="150" height="30" as="alternateBounds" />
          </mxGeometry>
        </mxCell>
        <mxCell id="wKV96D3HA0CmSMx8KGgX-52" value="" style="shape=tableRow;horizontal=0;startSize=0;swimlaneHead=0;swimlaneBody=0;fillColor=none;collapsible=0;dropTarget=0;points=[[0,0.5],[1,0.5]];portConstraint=eastwest;top=0;left=0;right=0;bottom=0;" vertex="1" parent="wKV96D3HA0CmSMx8KGgX-39">
          <mxGeometry y="60" width="330" height="30" as="geometry" />
        </mxCell>
        <mxCell id="wKV96D3HA0CmSMx8KGgX-53" value="" style="shape=partialRectangle;connectable=0;fillColor=none;top=0;left=0;bottom=0;right=0;editable=1;overflow=hidden;whiteSpace=wrap;html=1;" vertex="1" parent="wKV96D3HA0CmSMx8KGgX-52">
          <mxGeometry width="30" height="30" as="geometry">
            <mxRectangle width="30" height="30" as="alternateBounds" />
          </mxGeometry>
        </mxCell>
        <mxCell id="wKV96D3HA0CmSMx8KGgX-54" value="name" style="shape=partialRectangle;connectable=0;fillColor=none;top=0;left=0;bottom=0;right=0;align=left;spacingLeft=6;overflow=hidden;whiteSpace=wrap;html=1;" vertex="1" parent="wKV96D3HA0CmSMx8KGgX-52">
          <mxGeometry x="30" width="150" height="30" as="geometry">
            <mxRectangle width="150" height="30" as="alternateBounds" />
          </mxGeometry>
        </mxCell>
        <mxCell id="wKV96D3HA0CmSMx8KGgX-55" value="string" style="shape=partialRectangle;connectable=0;fillColor=none;top=0;left=0;bottom=0;right=0;align=left;spacingLeft=6;overflow=hidden;whiteSpace=wrap;html=1;" vertex="1" parent="wKV96D3HA0CmSMx8KGgX-52">
          <mxGeometry x="180" width="150" height="30" as="geometry">
            <mxRectangle width="150" height="30" as="alternateBounds" />
          </mxGeometry>
        </mxCell>
        <mxCell id="wKV96D3HA0CmSMx8KGgX-56" value="" style="shape=tableRow;horizontal=0;startSize=0;swimlaneHead=0;swimlaneBody=0;fillColor=none;collapsible=0;dropTarget=0;points=[[0,0.5],[1,0.5]];portConstraint=eastwest;top=0;left=0;right=0;bottom=0;" vertex="1" parent="wKV96D3HA0CmSMx8KGgX-39">
          <mxGeometry y="90" width="330" height="30" as="geometry" />
        </mxCell>
        <mxCell id="wKV96D3HA0CmSMx8KGgX-57" value="" style="shape=partialRectangle;connectable=0;fillColor=none;top=0;left=0;bottom=0;right=0;editable=1;overflow=hidden;whiteSpace=wrap;html=1;" vertex="1" parent="wKV96D3HA0CmSMx8KGgX-56">
          <mxGeometry width="30" height="30" as="geometry">
            <mxRectangle width="30" height="30" as="alternateBounds" />
          </mxGeometry>
        </mxCell>
        <mxCell id="wKV96D3HA0CmSMx8KGgX-58" value="image_url" style="shape=partialRectangle;connectable=0;fillColor=none;top=0;left=0;bottom=0;right=0;align=left;spacingLeft=6;overflow=hidden;whiteSpace=wrap;html=1;" vertex="1" parent="wKV96D3HA0CmSMx8KGgX-56">
          <mxGeometry x="30" width="150" height="30" as="geometry">
            <mxRectangle width="150" height="30" as="alternateBounds" />
          </mxGeometry>
        </mxCell>
        <mxCell id="wKV96D3HA0CmSMx8KGgX-59" value="string" style="shape=partialRectangle;connectable=0;fillColor=none;top=0;left=0;bottom=0;right=0;align=left;spacingLeft=6;overflow=hidden;whiteSpace=wrap;html=1;" vertex="1" parent="wKV96D3HA0CmSMx8KGgX-56">
          <mxGeometry x="180" width="150" height="30" as="geometry">
            <mxRectangle width="150" height="30" as="alternateBounds" />
          </mxGeometry>
        </mxCell>
        <mxCell id="wKV96D3HA0CmSMx8KGgX-60" value="" style="shape=tableRow;horizontal=0;startSize=0;swimlaneHead=0;swimlaneBody=0;fillColor=none;collapsible=0;dropTarget=0;points=[[0,0.5],[1,0.5]];portConstraint=eastwest;top=0;left=0;right=0;bottom=0;" vertex="1" parent="wKV96D3HA0CmSMx8KGgX-39">
          <mxGeometry y="120" width="330" height="30" as="geometry" />
        </mxCell>
        <mxCell id="wKV96D3HA0CmSMx8KGgX-61" value="" style="shape=partialRectangle;connectable=0;fillColor=none;top=0;left=0;bottom=0;right=0;editable=1;overflow=hidden;whiteSpace=wrap;html=1;" vertex="1" parent="wKV96D3HA0CmSMx8KGgX-60">
          <mxGeometry width="30" height="30" as="geometry">
            <mxRectangle width="30" height="30" as="alternateBounds" />
          </mxGeometry>
        </mxCell>
        <mxCell id="wKV96D3HA0CmSMx8KGgX-62" value="." style="shape=partialRectangle;connectable=0;fillColor=none;top=0;left=0;bottom=0;right=0;align=left;spacingLeft=6;overflow=hidden;whiteSpace=wrap;html=1;" vertex="1" parent="wKV96D3HA0CmSMx8KGgX-60">
          <mxGeometry x="30" width="150" height="30" as="geometry">
            <mxRectangle width="150" height="30" as="alternateBounds" />
          </mxGeometry>
        </mxCell>
        <mxCell id="wKV96D3HA0CmSMx8KGgX-63" value="." style="shape=partialRectangle;connectable=0;fillColor=none;top=0;left=0;bottom=0;right=0;align=left;spacingLeft=6;overflow=hidden;whiteSpace=wrap;html=1;" vertex="1" parent="wKV96D3HA0CmSMx8KGgX-60">
          <mxGeometry x="180" width="150" height="30" as="geometry">
            <mxRectangle width="150" height="30" as="alternateBounds" />
          </mxGeometry>
        </mxCell>
        <mxCell id="wKV96D3HA0CmSMx8KGgX-64" value="" style="shape=tableRow;horizontal=0;startSize=0;swimlaneHead=0;swimlaneBody=0;fillColor=none;collapsible=0;dropTarget=0;points=[[0,0.5],[1,0.5]];portConstraint=eastwest;top=0;left=0;right=0;bottom=0;" vertex="1" parent="wKV96D3HA0CmSMx8KGgX-39">
          <mxGeometry y="150" width="330" height="30" as="geometry" />
        </mxCell>
        <mxCell id="wKV96D3HA0CmSMx8KGgX-65" value="" style="shape=partialRectangle;connectable=0;fillColor=none;top=0;left=0;bottom=0;right=0;editable=1;overflow=hidden;whiteSpace=wrap;html=1;" vertex="1" parent="wKV96D3HA0CmSMx8KGgX-64">
          <mxGeometry width="30" height="30" as="geometry">
            <mxRectangle width="30" height="30" as="alternateBounds" />
          </mxGeometry>
        </mxCell>
        <mxCell id="wKV96D3HA0CmSMx8KGgX-66" value="...user_data" style="shape=partialRectangle;connectable=0;fillColor=none;top=0;left=0;bottom=0;right=0;align=left;spacingLeft=6;overflow=hidden;whiteSpace=wrap;html=1;" vertex="1" parent="wKV96D3HA0CmSMx8KGgX-64">
          <mxGeometry x="30" width="150" height="30" as="geometry">
            <mxRectangle width="150" height="30" as="alternateBounds" />
          </mxGeometry>
        </mxCell>
        <mxCell id="wKV96D3HA0CmSMx8KGgX-67" value="...data_types" style="shape=partialRectangle;connectable=0;fillColor=none;top=0;left=0;bottom=0;right=0;align=left;spacingLeft=6;overflow=hidden;whiteSpace=wrap;html=1;" vertex="1" parent="wKV96D3HA0CmSMx8KGgX-64">
          <mxGeometry x="180" width="150" height="30" as="geometry">
            <mxRectangle width="150" height="30" as="alternateBounds" />
          </mxGeometry>
        </mxCell>
      </root>
    </mxGraphModel>
  </diagram>
</mxfile>
